# Blender 3.6.2
# www.blender.org
o cup
v 0.000000 0.000000 -0.100000
v -0.019509 0.000000 -0.098079
v -0.038268 0.000000 -0.092388
v -0.055557 0.000000 -0.083147
v -0.070711 0.000000 -0.070711
v -0.083147 0.000000 -0.055557
v -0.092388 0.000000 -0.038268
v -0.098079 0.000000 -0.019509
v -0.100000 0.000000 0.000000
v -0.098079 0.000000 0.019509
v -0.092388 0.000000 0.038268
v -0.083147 0.000000 0.055557
v -0.070711 0.000000 0.070711
v -0.055557 0.000000 0.083147
v -0.038268 0.000000 0.092388
v -0.019509 0.000000 0.098079
v 0.000000 0.000000 0.100000
v 0.019509 0.000000 0.098079
v 0.038268 0.000000 0.092388
v 0.055557 0.000000 0.083147
v 0.070711 0.000000 0.070711
v 0.083147 0.000000 0.055557
v 0.092388 0.000000 0.038268
v 0.098079 0.000000 0.019509
v 0.100000 0.000000 0.000000
v 0.098079 0.000000 -0.019509
v 0.092388 0.000000 -0.038268
v 0.083147 0.000000 -0.055557
v 0.070711 0.000000 -0.070711
v 0.055557 0.000000 -0.083147
v 0.038268 0.000000 -0.092388
v 0.019509 0.000000 -0.098079
v 0.000000 -0.200378 -0.030314
v -0.011601 -0.200378 -0.028006
v -0.021435 -0.200378 -0.021435
v -0.028006 -0.200378 -0.011601
v -0.030314 -0.200378 0.000000
v -0.028006 -0.200378 0.011601
v -0.021435 -0.200378 0.021435
v -0.011601 -0.200378 0.028006
v 0.000000 -0.200378 0.030314
v 0.011601 -0.200378 0.028006
v 0.021435 -0.200378 0.021435
v 0.028006 -0.200378 0.011601
v 0.030314 -0.200378 0.000000
v 0.028006 -0.200378 -0.011601
v 0.021435 -0.200378 -0.021435
v 0.011601 -0.200378 -0.028006
v 0.000000 -0.200378 -0.030314
v -0.011601 -0.200378 -0.028006
v -0.021435 -0.200378 -0.021435
v -0.028006 -0.200378 -0.011601
v -0.030314 -0.200378 0.000000
v -0.028006 -0.200378 0.011601
v -0.021435 -0.200378 0.021435
v -0.011601 -0.200378 0.028006
v 0.000000 -0.200378 0.030314
v 0.011601 -0.200378 0.028006
v 0.021435 -0.200378 0.021435
v 0.028006 -0.200378 0.011601
v 0.030314 -0.200378 0.000000
v 0.028006 -0.200378 -0.011601
v 0.021435 -0.200378 -0.021435
v 0.011601 -0.200378 -0.028006
v 0.000000 2.466201 -0.030314
v -0.011601 2.466201 -0.028006
v -0.021435 2.466201 -0.021435
v -0.028006 2.466201 -0.011601
v -0.030314 2.466201 0.000000
v -0.028006 2.466201 0.011601
v -0.021435 2.466201 0.021435
v -0.011601 2.466201 0.028006
v 0.000000 2.466201 0.030314
v 0.011601 2.466201 0.028006
v 0.021435 2.466201 0.021435
v 0.028006 2.466201 0.011601
v 0.030314 2.466201 0.000000
v 0.028006 2.466201 -0.011601
v 0.021435 2.466201 -0.021435
v 0.011601 2.466201 -0.028006
v 0.000000 2.466201 -0.030314
v -0.011601 2.466201 -0.028006
v -0.021435 2.466201 -0.021435
v -0.028006 2.466201 -0.011601
v -0.030314 2.466201 0.000000
v -0.028006 2.466201 0.011601
v -0.021435 2.466201 0.021435
v -0.011601 2.466201 0.028006
v 0.000000 2.466201 0.030314
v 0.011601 2.466201 0.028006
v 0.021435 2.466201 0.021435
v 0.028006 2.466201 0.011601
v 0.030314 2.466201 0.000000
v 0.028006 2.466201 -0.011601
v 0.021435 2.466201 -0.021435
v 0.011601 2.466201 -0.028006
v 0.000000 2.472906 -0.019458
v -0.007446 2.472906 -0.017976
v -0.013759 2.472906 -0.013759
v -0.017976 2.472906 -0.007446
v -0.019458 2.472906 0.000000
v -0.017976 2.472906 0.007446
v -0.013759 2.472906 0.013759
v -0.007446 2.472906 0.017976
v 0.000000 2.472906 0.019458
v 0.007446 2.472906 0.017976
v 0.013759 2.472906 0.013759
v 0.017976 2.472906 0.007446
v 0.019458 2.472906 0.000000
v 0.017976 2.472906 -0.007446
v 0.013759 2.472906 -0.013759
v 0.007446 2.472906 -0.017976
v 0.000000 2.477277 0.000000
v 0.418580 2.247625 0.035793
v 0.013804 2.041675 0.008554
v 0.013804 2.453575 0.008554
v 0.092251 2.417320 -0.018169
v 0.201416 2.364223 -0.028561
v 0.308854 2.310429 -0.011003
v 0.308853 2.184821 -0.011004
v 0.199732 2.130185 -0.028561
v 0.092251 2.077930 -0.018169
v 0.000000 -0.200779 -0.100000
v -0.019509 -0.200779 -0.098079
v -0.038268 -0.200779 -0.092388
v -0.055557 -0.200779 -0.083147
v -0.070711 -0.200779 -0.070711
v -0.083147 -0.200779 -0.055557
v -0.092388 -0.200779 -0.038268
v -0.098079 -0.200779 -0.019509
v -0.100000 -0.200779 0.000000
v -0.098079 -0.200779 0.019509
v -0.092388 -0.200779 0.038268
v -0.083147 -0.200779 0.055557
v -0.070711 -0.200779 0.070711
v -0.055557 -0.200779 0.083147
v -0.038268 -0.200779 0.092388
v -0.019509 -0.200779 0.098079
v 0.000000 -0.200779 0.100000
v 0.019509 -0.200779 0.098079
v 0.038268 -0.200779 0.092388
v 0.055557 -0.200779 0.083147
v 0.070711 -0.200779 0.070711
v 0.083147 -0.200779 0.055557
v 0.092388 -0.200779 0.038268
v 0.098079 -0.200779 0.019509
v 0.100000 -0.200779 0.000000
v 0.098079 -0.200779 -0.019509
v 0.092388 -0.200779 -0.038268
v 0.083147 -0.200779 -0.055557
v 0.070711 -0.200779 -0.070711
v 0.055557 -0.200779 -0.083147
v 0.038268 -0.200779 -0.092388
v 0.019509 -0.200779 -0.098079
v -0.000000 -0.200779 0.000000
vn -0.0000 1.0000 -0.0000
vn -0.1951 -0.0000 0.9808
vn -0.1951 -0.0000 -0.9808
vn 0.1951 -0.0000 -0.9808
vn 0.1951 -0.0000 0.9808
vn -0.5556 -0.0000 -0.8315
vn 0.5556 -0.0000 0.8315
vn -0.8315 -0.0000 -0.5556
vn 0.8315 -0.0000 0.5556
vn -0.9808 -0.0000 -0.1951
vn 0.9808 -0.0000 0.1951
vn -0.9808 -0.0000 0.1951
vn 0.9808 -0.0000 -0.1951
vn -0.8315 -0.0000 0.5556
vn 0.8315 -0.0000 -0.5556
vn -0.5556 -0.0000 0.8315
vn 0.5556 -0.0000 -0.8315
vn -0.4431 0.8462 -0.2960
vn 0.4431 0.8462 0.2960
vn -0.5226 0.8462 -0.1040
vn 0.5227 0.8462 0.1040
vn -0.5227 0.8462 0.1040
vn 0.5226 0.8462 -0.1040
vn -0.4431 0.8462 0.2960
vn 0.4431 0.8462 -0.2960
vn -0.2961 0.8462 0.4431
vn 0.2961 0.8462 -0.4431
vn -0.1040 0.8462 0.5226
vn -0.1040 0.8462 -0.5226
vn 0.1040 0.8462 -0.5226
vn 0.1040 0.8462 0.5226
vn -0.2961 0.8462 -0.4431
vn 0.2961 0.8462 0.4431
vn -0.0436 0.9748 0.2190
vn -0.0436 0.9748 -0.2190
vn 0.0436 0.9748 -0.2190
vn 0.0436 0.9748 0.2190
vn -0.1240 0.9748 -0.1856
vn 0.1240 0.9748 0.1856
vn -0.1856 0.9748 -0.1240
vn 0.1856 0.9748 0.1240
vn -0.2190 0.9748 -0.0436
vn 0.2190 0.9748 0.0436
vn -0.2190 0.9748 0.0436
vn 0.2190 0.9748 -0.0436
vn -0.1856 0.9748 0.1240
vn 0.1856 0.9748 -0.1240
vn -0.1240 0.9748 0.1856
vn 0.1240 0.9748 -0.1856
vn -0.3225 -0.0000 -0.9466
vn -0.0962 -0.0000 -0.9954
vn 0.1594 -0.0011 -0.9872
vn 0.3923 -0.0000 -0.9198
vn -0.9569 -0.0000 -0.2903
vn 0.7730 -0.0000 0.6344
vn -0.9952 -0.0000 -0.0980
vn 0.8819 -0.0000 0.4714
vn -0.9952 -0.0000 0.0980
vn 0.9569 -0.0000 0.2903
vn -0.9569 -0.0000 0.2903
vn 0.9952 -0.0000 0.0980
vn -0.8819 -0.0000 0.4714
vn 0.9952 -0.0000 -0.0980
vn -0.7730 -0.0000 0.6344
vn 0.9569 -0.0000 -0.2903
vn -0.6344 -0.0000 0.7730
vn 0.8819 -0.0000 -0.4714
vn -0.4714 -0.0000 0.8819
vn -0.0980 -0.0000 -0.9952
vn 0.7730 -0.0000 -0.6344
vn -0.2903 -0.0000 0.9569
vn -0.2903 -0.0000 -0.9569
vn 0.6344 -0.0000 -0.7730
vn -0.0980 -0.0000 0.9952
vn -0.4714 -0.0000 -0.8819
vn 0.4714 -0.0000 -0.8819
vn 0.0980 -0.0000 0.9952
vn -0.6344 -0.0000 -0.7730
vn 0.2903 -0.0000 -0.9569
vn 0.2903 -0.0000 0.9569
vn -0.7730 -0.0000 -0.6344
vn 0.0980 -0.0000 -0.9952
vn 0.4714 -0.0000 0.8819
vn -0.8819 -0.0000 -0.4714
vn 0.6344 -0.0000 0.7730
vn -0.0000 -1.0000 -0.0000
vn 0.4430 0.8462 0.2961
vn 0.5226 0.8462 0.1040
vn -0.5226 0.8462 0.1040
vn -0.4430 0.8462 0.2960
vn -0.2960 0.8462 0.4431
vn 0.2960 0.8462 -0.4431
vn -0.1039 0.8462 0.5226
vn -0.1039 0.8462 -0.5226
vn 0.1039 0.8462 -0.5226
vn 0.1039 0.8462 0.5226
vn -0.2960 0.8462 -0.4431
vn 0.2960 0.8462 0.4431
vn -0.0944 0.0007 -0.9955
vn 0.1613 -0.0000 -0.9869
vt 0.031551 0.020686
vt 0.027344 0.020686
vt 0.019570 0.020686
vt 0.023136 0.020686
vt 0.035118 0.020686
vt 0.017186 0.020686
vt 0.037501 0.020686
vt 0.016350 0.020686
vt 0.038338 0.020686
vt 0.027344 0.987792
vt 0.023136 0.987792
vt 0.031551 0.987792
vt 0.019570 0.987792
vt 0.035118 0.987792
vt 0.017186 0.987792
vt 0.037501 0.987792
vt 0.016350 0.987792
vt 0.038338 0.987792
vt 0.022354 0.990224
vt 0.033863 0.990224
vt 0.020287 0.990224
vt 0.034400 0.990224
vt 0.020824 0.990224
vt 0.032334 0.990224
vt 0.024643 0.990224
vt 0.030044 0.990224
vt 0.027344 0.990224
vt 0.027344 0.991809
vt 0.162795 0.963821
vt 0.222913 0.675951
vt 0.162795 0.648168
vt 0.222913 0.936038
vt 0.305279 0.715996
vt 0.306569 0.895348
vt 0.388903 0.757866
vt 0.388903 0.854123
vt 0.472990 0.805995
vt 0.164960 0.226912
vt 0.159241 0.025122
vt 0.159241 0.226912
vt 0.328879 0.226912
vt 0.341378 0.025122
vt 0.341378 0.226912
vt 0.157310 0.025122
vt 0.157310 0.226912
vt 0.350665 0.025122
vt 0.350665 0.226912
vt 0.356384 0.025122
vt 0.356384 0.226912
vt 0.164960 0.025122
vt 0.358315 0.025122
vt 0.358315 0.226912
vt 0.174247 0.025122
vt 0.174247 0.226912
vt 0.186746 0.025123
vt 0.186746 0.226912
vt 0.201976 0.025123
vt 0.201976 0.226912
vt 0.219352 0.025123
vt 0.219352 0.226912
vt 0.257812 0.226912
vt 0.238205 0.025122
vt 0.238205 0.226912
vt 0.328879 0.025122
vt 0.238205 0.025123
vt 0.219352 0.025122
vt 0.313649 0.025122
vt 0.313649 0.226912
vt 0.257812 0.025123
vt 0.201976 0.025122
vt 0.296273 0.025122
vt 0.296273 0.226912
vt 0.277420 0.025123
vt 0.277420 0.226912
vt 0.186746 0.025122
vt 0.277420 0.025122
vt 0.296273 0.025123
vt 0.257812 0.025122
vt 0.313649 0.025123
vt 0.328879 0.025123
s 0
f 42/1/1 57/2/1 41/2/1
f 35/3/1 50/4/1 34/4/1
f 43/5/1 58/1/1 42/1/1
f 36/6/1 51/3/1 35/3/1
f 44/7/1 59/5/1 43/5/1
f 37/8/1 52/6/1 36/6/1
f 45/9/1 60/7/1 44/7/1
f 38/6/1 53/8/1 37/8/1
f 46/7/1 61/9/1 45/9/1
f 39/3/1 54/6/1 38/6/1
f 47/5/1 62/7/1 46/7/1
f 40/4/1 55/3/1 39/3/1
f 48/1/1 63/5/1 47/5/1
f 41/2/1 56/4/1 40/4/1
f 34/4/1 49/2/1 33/2/1
f 33/2/1 64/1/1 48/1/1
f 73/10/2 56/4/2 57/2/2
f 66/11/3 49/2/3 50/4/3
f 65/10/4 64/1/4 49/2/4
f 74/12/5 57/2/5 58/1/5
f 67/13/6 50/4/6 51/3/6
f 75/14/7 58/1/7 59/5/7
f 68/15/8 51/3/8 52/6/8
f 76/16/9 59/5/9 60/7/9
f 69/17/10 52/6/10 53/8/10
f 77/18/11 60/7/11 61/9/11
f 70/15/12 53/8/12 54/6/12
f 78/16/13 61/9/13 62/7/13
f 71/13/14 54/6/14 55/3/14
f 79/14/15 62/7/15 63/5/15
f 72/11/16 55/3/16 56/4/16
f 80/12/17 63/5/17 64/1/17
f 78/16/1 93/18/1 77/18/1
f 71/13/1 86/15/1 70/15/1
f 79/14/1 94/16/1 78/16/1
f 72/11/1 87/13/1 71/13/1
f 80/12/1 95/14/1 79/14/1
f 73/10/1 88/11/1 72/11/1
f 66/11/1 81/10/1 65/10/1
f 65/10/1 96/12/1 80/12/1
f 74/12/1 89/10/1 73/10/1
f 67/13/1 82/11/1 66/11/1
f 75/14/1 90/12/1 74/12/1
f 68/15/1 83/13/1 67/13/1
f 76/16/1 91/14/1 75/14/1
f 69/17/1 84/15/1 68/15/1
f 77/18/1 92/16/1 76/16/1
f 70/15/1 85/17/1 69/17/1
f 84/15/18 99/19/18 83/13/18
f 108/20/19 91/14/19 92/16/19
f 101/21/20 84/15/20 85/17/20
f 109/22/21 92/16/21 93/18/21
f 102/23/22 85/17/22 86/15/22
f 110/20/23 93/18/23 94/16/23
f 103/19/24 86/15/24 87/13/24
f 111/24/25 94/16/25 95/14/25
f 104/25/26 87/13/26 88/11/26
f 112/26/27 95/14/27 96/12/27
f 89/10/28 104/25/28 88/11/28
f 98/25/29 81/10/29 82/11/29
f 81/10/30 112/26/30 96/12/30
f 106/26/31 89/10/31 90/12/31
f 99/19/32 82/11/32 83/13/32
f 91/14/33 106/26/33 90/12/33
f 105/27/34 113/28/34 104/25/34
f 98/25/35 113/28/35 97/27/35
f 97/27/36 113/28/36 112/26/36
f 106/26/37 113/28/37 105/27/37
f 99/19/38 113/28/38 98/25/38
f 107/24/39 113/28/39 106/26/39
f 100/23/40 113/28/40 99/19/40
f 108/20/41 113/28/41 107/24/41
f 101/21/42 113/28/42 100/23/42
f 109/22/43 113/28/43 108/20/43
f 102/23/44 113/28/44 101/21/44
f 110/20/45 113/28/45 109/22/45
f 103/19/46 113/28/46 102/23/46
f 111/24/47 113/28/47 110/20/47
f 104/25/48 113/28/48 103/19/48
f 112/26/49 113/28/49 111/24/49
f 116/29/50 122/30/50 115/31/50
f 117/32/51 121/33/51 122/30/51
f 118/34/52 120/35/52 121/33/52
f 120/35/53 119/36/53 114/37/53
f 7/38/54 130/39/54 8/40/54
f 21/41/55 144/42/55 22/43/55
f 8/40/56 131/44/56 9/45/56
f 22/43/57 145/46/57 23/47/57
f 9/45/58 132/39/58 10/40/58
f 23/47/59 146/48/59 24/49/59
f 10/40/60 133/50/60 11/38/60
f 24/49/61 147/51/61 25/52/61
f 11/38/62 134/53/62 12/54/62
f 25/52/63 148/48/63 26/49/63
f 12/54/64 135/55/64 13/56/64
f 26/49/65 149/46/65 27/47/65
f 13/56/66 136/57/66 14/58/66
f 27/47/67 150/42/67 28/43/67
f 14/58/68 137/59/68 15/60/68
f 1/61/69 124/62/69 2/63/69
f 28/43/70 151/64/70 29/41/70
f 15/60/71 138/65/71 16/63/71
f 2/63/72 125/66/72 3/60/72
f 29/41/73 152/67/73 30/68/73
f 16/63/74 139/69/74 17/61/74
f 3/60/75 126/70/75 4/58/75
f 30/68/76 153/71/76 31/72/76
f 17/61/77 140/73/77 18/74/77
f 4/58/78 127/75/78 5/56/78
f 31/72/79 154/76/79 32/74/79
f 18/74/80 141/77/80 19/72/80
f 5/56/81 128/53/81 6/54/81
f 32/74/82 123/78/82 1/61/82
f 19/72/83 142/79/83 20/68/83
f 6/54/84 129/50/84 7/38/84
f 20/68/85 143/80/85 21/41/85
f 135/55/86 134/53/86 155/78/86
f 149/46/86 148/48/86 155/78/86
f 136/57/86 135/55/86 155/78/86
f 150/42/86 149/46/86 155/78/86
f 137/59/86 136/57/86 155/78/86
f 124/62/86 123/78/86 155/78/86
f 151/64/86 150/42/86 155/78/86
f 138/65/86 137/59/86 155/78/86
f 125/66/86 124/62/86 155/78/86
f 152/67/86 151/64/86 155/78/86
f 139/69/86 138/65/86 155/78/86
f 126/70/86 125/66/86 155/78/86
f 153/71/86 152/67/86 155/78/86
f 140/73/86 139/69/86 155/78/86
f 127/75/86 126/70/86 155/78/86
f 154/76/86 153/71/86 155/78/86
f 141/77/86 140/73/86 155/78/86
f 128/53/86 127/75/86 155/78/86
f 123/78/86 154/76/86 155/78/86
f 142/79/86 141/77/86 155/78/86
f 129/50/86 128/53/86 155/78/86
f 143/80/86 142/79/86 155/78/86
f 130/39/86 129/50/86 155/78/86
f 144/42/86 143/80/86 155/78/86
f 131/44/86 130/39/86 155/78/86
f 145/46/86 144/42/86 155/78/86
f 132/39/86 131/44/86 155/78/86
f 146/48/86 145/46/86 155/78/86
f 133/50/86 132/39/86 155/78/86
f 147/51/86 146/48/86 155/78/86
f 134/53/86 133/50/86 155/78/86
f 148/48/86 147/51/86 155/78/86
f 42/1/1 58/1/1 57/2/1
f 35/3/1 51/3/1 50/4/1
f 43/5/1 59/5/1 58/1/1
f 36/6/1 52/6/1 51/3/1
f 44/7/1 60/7/1 59/5/1
f 37/8/1 53/8/1 52/6/1
f 45/9/1 61/9/1 60/7/1
f 38/6/1 54/6/1 53/8/1
f 46/7/1 62/7/1 61/9/1
f 39/3/1 55/3/1 54/6/1
f 47/5/1 63/5/1 62/7/1
f 40/4/1 56/4/1 55/3/1
f 48/1/1 64/1/1 63/5/1
f 41/2/1 57/2/1 56/4/1
f 34/4/1 50/4/1 49/2/1
f 33/2/1 49/2/1 64/1/1
f 73/10/2 72/11/2 56/4/2
f 66/11/3 65/10/3 49/2/3
f 65/10/4 80/12/4 64/1/4
f 74/12/5 73/10/5 57/2/5
f 67/13/6 66/11/6 50/4/6
f 75/14/7 74/12/7 58/1/7
f 68/15/8 67/13/8 51/3/8
f 76/16/9 75/14/9 59/5/9
f 69/17/10 68/15/10 52/6/10
f 77/18/11 76/16/11 60/7/11
f 70/15/12 69/17/12 53/8/12
f 78/16/13 77/18/13 61/9/13
f 71/13/14 70/15/14 54/6/14
f 79/14/15 78/16/15 62/7/15
f 72/11/16 71/13/16 55/3/16
f 80/12/17 79/14/17 63/5/17
f 78/16/1 94/16/1 93/18/1
f 71/13/1 87/13/1 86/15/1
f 79/14/1 95/14/1 94/16/1
f 72/11/1 88/11/1 87/13/1
f 80/12/1 96/12/1 95/14/1
f 73/10/1 89/10/1 88/11/1
f 66/11/1 82/11/1 81/10/1
f 65/10/1 81/10/1 96/12/1
f 74/12/1 90/12/1 89/10/1
f 67/13/1 83/13/1 82/11/1
f 75/14/1 91/14/1 90/12/1
f 68/15/1 84/15/1 83/13/1
f 76/16/1 92/16/1 91/14/1
f 69/17/1 85/17/1 84/15/1
f 77/18/1 93/18/1 92/16/1
f 70/15/1 86/15/1 85/17/1
f 84/15/18 100/23/18 99/19/18
f 108/20/87 107/24/87 91/14/87
f 101/21/20 100/23/20 84/15/20
f 109/22/88 108/20/88 92/16/88
f 102/23/89 101/21/89 85/17/89
f 110/20/23 109/22/23 93/18/23
f 103/19/90 102/23/90 86/15/90
f 111/24/25 110/20/25 94/16/25
f 104/25/91 103/19/91 87/13/91
f 112/26/92 111/24/92 95/14/92
f 89/10/93 105/27/93 104/25/93
f 98/25/94 97/27/94 81/10/94
f 81/10/95 97/27/95 112/26/95
f 106/26/96 105/27/96 89/10/96
f 99/19/97 98/25/97 82/11/97
f 91/14/98 107/24/98 106/26/98
f 116/29/50 117/32/50 122/30/50
f 117/32/99 118/34/99 121/33/99
f 118/34/100 119/36/100 120/35/100
f 7/38/54 129/50/54 130/39/54
f 21/41/55 143/80/55 144/42/55
f 8/40/56 130/39/56 131/44/56
f 22/43/57 144/42/57 145/46/57
f 9/45/58 131/44/58 132/39/58
f 23/47/59 145/46/59 146/48/59
f 10/40/60 132/39/60 133/50/60
f 24/49/61 146/48/61 147/51/61
f 11/38/62 133/50/62 134/53/62
f 25/52/63 147/51/63 148/48/63
f 12/54/64 134/53/64 135/55/64
f 26/49/65 148/48/65 149/46/65
f 13/56/66 135/55/66 136/57/66
f 27/47/67 149/46/67 150/42/67
f 14/58/68 136/57/68 137/59/68
f 1/61/69 123/78/69 124/62/69
f 28/43/70 150/42/70 151/64/70
f 15/60/71 137/59/71 138/65/71
f 2/63/72 124/62/72 125/66/72
f 29/41/73 151/64/73 152/67/73
f 16/63/74 138/65/74 139/69/74
f 3/60/75 125/66/75 126/70/75
f 30/68/76 152/67/76 153/71/76
f 17/61/77 139/69/77 140/73/77
f 4/58/78 126/70/78 127/75/78
f 31/72/79 153/71/79 154/76/79
f 18/74/80 140/73/80 141/77/80
f 5/56/81 127/75/81 128/53/81
f 32/74/82 154/76/82 123/78/82
f 19/72/83 141/77/83 142/79/83
f 6/54/84 128/53/84 129/50/84
f 20/68/85 142/79/85 143/80/85
