# Blender 3.6.2
# www.blender.org
o Cube
v -4.627381 -0.019042 39.864006
v -9.106259 -7.484478 38.031303
v -4.376842 -0.019042 22.800545
v -9.516204 -7.484478 23.849365
v 14.789912 -0.019042 43.484009
v 20.492828 -7.484478 45.994598
v 15.623158 -0.019042 22.800545
v 21.456440 -7.484478 22.540298
v -22.670712 -0.019042 58.767422
v -28.975262 -7.484478 57.548737
v 0.094134 -0.019042 58.070419
v 4.330950 -7.484478 59.233772
v -12.757720 -0.019042 83.569862
v -18.006767 -7.484478 86.015945
v 5.066400 -0.019042 77.288452
v 8.111092 -7.484478 74.202286
v -2.579328 -0.019042 102.563622
v -7.447272 -7.484478 105.829193
v 16.016243 -0.019042 79.963974
v 17.525379 -7.484478 74.425606
v -16.032093 -0.019042 -3.488853
v -22.141270 -7.484478 -5.938034
v 10.763907 -0.019042 -14.532494
v 14.095302 -7.484478 -20.281105
v 8.018766 -0.019042 115.409225
v 5.054854 -7.484478 120.905159
v 31.668018 -0.019042 84.675758
v 35.965908 -7.484478 80.047081
v 28.374447 -0.019042 117.620255
v 30.880493 -7.484478 123.476646
v 38.994457 -0.019042 103.763527
v 45.296738 -7.484478 104.675568
v -7.989606 -2.898657 38.492188
v 19.737694 -2.882210 22.601044
v -8.155692 -2.933436 23.578224
v 18.700714 -2.855133 45.258667
v -26.931725 -2.799799 57.912392
v 3.402961 -2.935579 58.987705
v -16.450970 -2.851102 85.285378
v 7.428269 -2.926329 74.845512
v -5.982650 -2.838936 104.846786
v 17.028133 -2.911327 76.001747
v 12.924430 -2.703736 -18.330208
v -20.106625 -2.771328 -5.154297
v 6.000940 -2.804926 119.163284
v 34.590374 -2.795562 81.534737
v 30.074024 -2.784758 121.578690
v 43.259003 -2.787738 104.383461
vn -0.0000 1.0000 -0.0000
vn -0.6110 0.7482 0.2584
vn 0.5793 0.8147 0.0255
vn -0.6101 0.7923 0.0049
vn -0.6948 0.2374 -0.6789
vn 0.3889 0.8104 0.4381
vn 0.0682 0.8140 -0.5768
vn -0.8756 0.3470 0.3359
vn 0.6778 0.7147 -0.1725
vn -0.7178 0.3532 0.6000
vn -0.8269 0.3474 0.4423
vn -0.2615 0.7118 -0.6519
vn 0.9252 0.3475 -0.1525
vn 0.1707 0.8116 -0.5587
vn 0.4705 0.8053 0.3606
vn -0.0933 0.3638 0.9268
vn 0.5537 0.8057 -0.2103
vn 0.8731 0.3582 -0.3308
vn -0.0622 0.8172 0.5730
vn 0.7413 0.3568 0.5684
vn 0.2718 0.3626 -0.8915
vn 0.5672 0.8203 -0.0738
vn -0.3535 0.2779 -0.8932
vn -0.5038 0.8205 0.2700
vn -0.4387 0.8225 0.3619
vn 0.9543 0.1770 -0.2410
vn -0.5307 0.8206 0.2121
vn 0.0224 0.3279 -0.9444
vn 0.5946 0.3456 0.7259
vn -0.4692 0.7611 -0.4478
vn -0.9573 0.2878 0.0277
vn 0.9298 0.3660 0.0382
vn -0.8737 0.3156 0.3703
vn -0.5591 0.7911 0.2479
vn 0.5718 0.8201 0.0230
vn -0.6482 0.7614 -0.0095
vn -0.6591 0.3396 -0.6710
vn 0.4926 0.7149 0.4963
vn 0.1671 0.7103 -0.6838
vn -0.8725 0.3545 0.3362
vn 0.6856 0.7060 -0.1774
vn -0.7164 0.3660 0.5941
vn -0.8256 0.3533 0.4400
vn -0.2533 0.7470 -0.6147
vn 0.9412 0.2965 -0.1618
vn 0.1666 0.8162 -0.5533
vn 0.4705 0.8054 0.3606
vn -0.0925 0.3592 0.9287
vn 0.5457 0.8114 -0.2095
vn 0.8720 0.3608 -0.3309
vn -0.0598 0.8060 0.5888
vn 0.7413 0.3570 0.5684
vn 0.2806 0.3399 -0.8976
vn 0.6909 0.7143 -0.1119
vn -0.3540 0.3001 -0.8858
vn -0.5017 0.8225 0.2680
vn -0.4427 0.8174 0.3686
vn 0.9532 0.1814 -0.2421
vn -0.5637 0.7969 0.2173
vn 0.1179 0.1560 -0.9807
vn 0.6573 0.1738 0.7334
vn -0.4329 0.7943 -0.4262
vn -0.9718 0.2356 0.0103
vn 0.9361 0.3490 0.0424
vn -0.8841 0.2863 0.3693
vt 0.625000 0.500000
vt 0.875000 0.750000
vt 0.625000 0.750000
vt 0.500000 0.750000
vt 0.500000 0.000000
vt 0.625000 0.250000
vt 0.500000 0.250000
vt 0.500000 0.500000
vt 0.375000 0.500000
vt 0.875000 0.500000
vt 0.625000 1.000000
vt 0.500000 1.000000
vt 0.375000 0.000000
vt 0.375000 0.250000
vt 0.625000 0.000000
vt 0.375000 0.750000
vt 0.375000 1.000000
s 0
f 1/1/1 7/2/1 3/3/1
f 35/4/2 21/3/2 44/4/2
f 34/5/3 5/6/3 36/7/3
f 33/8/4 3/3/4 35/4/4
f 2/9/5 37/8/5 33/8/5
f 11/10/1 13/1/1 15/10/1
f 5/6/6 38/7/6 36/7/6
f 1/1/1 11/10/1 5/10/1
f 40/7/7 19/6/7 42/7/7
f 37/8/8 14/9/8 39/8/8
f 11/6/9 40/7/9 38/7/9
f 18/9/10 45/8/10 41/8/10
f 15/10/1 17/1/1 19/10/1
f 14/9/11 41/8/11 39/8/11
f 44/4/12 23/11/12 43/12/12
f 8/13/13 43/5/13 34/5/13
f 3/3/1 23/2/1 21/3/1
f 25/1/1 31/10/1 27/10/1
f 42/7/14 27/6/14 46/7/14
f 19/10/1 25/1/1 27/10/1
f 48/7/15 29/1/15 47/8/15
f 26/9/16 47/8/16 45/8/16
f 46/7/17 31/6/17 48/7/17
f 28/14/18 48/7/18 32/14/18
f 45/8/19 29/1/19 25/1/19
f 32/14/20 47/8/20 30/9/20
f 20/14/21 46/7/21 28/14/21
f 34/5/22 23/15/22 7/15/22
f 22/16/23 43/12/23 24/17/23
f 39/8/24 17/1/24 13/1/24
f 41/8/25 25/1/25 17/1/25
f 12/14/26 40/7/26 16/14/26
f 9/1/27 39/8/27 13/1/27
f 16/14/28 42/7/28 20/14/28
f 36/7/29 12/14/29 6/14/29
f 33/8/30 9/1/30 1/1/30
f 2/9/31 35/4/31 4/16/31
f 8/13/32 36/7/32 6/14/32
f 4/16/33 44/4/33 22/16/33
f 1/1/1 5/10/1 7/2/1
f 35/4/34 3/3/34 21/3/34
f 34/5/35 7/15/35 5/6/35
f 33/8/36 1/1/36 3/3/36
f 2/9/37 10/9/37 37/8/37
f 11/10/1 9/1/1 13/1/1
f 5/6/38 11/6/38 38/7/38
f 1/1/1 9/1/1 11/10/1
f 40/7/39 15/6/39 19/6/39
f 37/8/40 10/9/40 14/9/40
f 11/6/41 15/6/41 40/7/41
f 18/9/42 26/9/42 45/8/42
f 15/10/1 13/1/1 17/1/1
f 14/9/43 18/9/43 41/8/43
f 44/4/44 21/3/44 23/11/44
f 8/13/45 24/13/45 43/5/45
f 3/3/1 7/2/1 23/2/1
f 25/1/1 29/1/1 31/10/1
f 42/7/46 19/6/46 27/6/46
f 19/10/1 17/1/1 25/1/1
f 48/7/47 31/6/47 29/1/47
f 26/9/48 30/9/48 47/8/48
f 46/7/49 27/6/49 31/6/49
f 28/14/50 46/7/50 48/7/50
f 45/8/51 47/8/51 29/1/51
f 32/14/52 48/7/52 47/8/52
f 20/14/53 42/7/53 46/7/53
f 34/5/54 43/5/54 23/15/54
f 22/16/55 44/4/55 43/12/55
f 39/8/56 41/8/56 17/1/56
f 41/8/57 45/8/57 25/1/57
f 12/14/58 38/7/58 40/7/58
f 9/1/59 37/8/59 39/8/59
f 16/14/60 40/7/60 42/7/60
f 36/7/61 38/7/61 12/14/61
f 33/8/62 37/8/62 9/1/62
f 2/9/63 33/8/63 35/4/63
f 8/13/64 34/5/64 36/7/64
f 4/16/65 35/4/65 44/4/65
