# Blender 3.6.2
# www.blender.org
o Cube
v 0.316501 0.852503 -0.236224
v 0.487191 0.645478 -0.236224
v 0.477248 0.985123 -0.173882
v 0.593431 0.798044 -0.198846
v 0.625484 0.802623 -0.003110
v 0.307904 0.848453 -0.003110
v 0.489609 0.984328 -0.003110
v 0.478594 0.641428 -0.003110
v 0.205962 0.511081 -0.289228
v 0.403312 0.455960 -0.252536
v 0.181754 0.511081 -0.159024
v 0.379104 0.455960 -0.122333
v 0.248427 0.093052 -0.332127
v 0.414079 0.098853 -0.293475
v 0.218334 0.093052 -0.203157
v 0.383986 0.098853 -0.164504
v 0.241948 -0.007221 -0.333639
v 0.407599 -0.001420 -0.294986
v 0.211854 -0.007221 -0.204669
v 0.377506 -0.001420 -0.166016
v 0.073997 0.056757 -0.372828
v 0.043904 0.056757 -0.243857
v 0.067518 0.003959 -0.374339
v 0.037424 0.003959 -0.245369
v 0.185346 1.082742 -0.213500
v 0.349536 1.211135 -0.176121
v 0.170818 1.075991 -0.003110
v 0.356375 1.217750 -0.003110
v 0.057264 1.354828 -0.148099
v 0.226759 1.466206 -0.143145
v 0.050022 1.368689 -0.003110
v 0.230053 1.496015 -0.003110
v 0.106753 1.424193 -0.188400
v -0.033803 1.653065 -0.173066
v 0.226896 1.486807 0.038078
v 0.086340 1.715678 0.053412
v -0.078268 1.304387 -0.057127
v -0.218825 1.533258 -0.041792
v 0.041874 1.367000 0.169351
v -0.098682 1.595872 0.184685
v 0.295605 1.344008 -0.235513
v 0.297962 1.361630 -0.003110
v 0.136738 1.182968 -0.130028
v 0.115167 1.220757 -0.003110
v 0.104037 1.316553 -0.285727
v 0.219445 1.422215 -0.245252
v 0.162503 1.128168 -0.227400
v -0.092659 0.791173 0.007180
v 0.002876 0.759314 0.026446
v -0.077674 0.773902 -0.082197
v 0.017861 0.742043 -0.062931
v 0.316501 0.852503 0.230003
v 0.471330 0.660209 0.238058
v 0.477248 0.985123 0.167661
v 0.593431 0.798044 0.192625
v 0.205962 0.511081 0.283007
v 0.403312 0.455960 0.246315
v 0.181754 0.511081 0.152804
v 0.379104 0.455960 0.116112
v 0.248427 0.093052 0.325906
v 0.414079 0.098853 0.287254
v 0.218334 0.093052 0.196936
v 0.383986 0.098853 0.158283
v 0.241948 -0.007221 0.327418
v 0.407599 -0.001420 0.288766
v 0.211854 -0.007221 0.198448
v 0.377506 -0.001420 0.159795
v 0.073997 0.056757 0.366607
v 0.043904 0.056757 0.237636
v 0.067518 0.003959 0.368119
v 0.037424 0.003959 0.239148
v 0.185346 1.082742 0.207279
v 0.349536 1.211135 0.169900
v 0.057264 1.354828 0.141878
v 0.226759 1.466206 0.136924
v -0.065557 1.542264 0.177887
v 0.119464 1.662070 0.046614
v -0.185700 1.479650 -0.048591
v -0.000678 1.599456 -0.179864
v -0.170813 1.455364 -0.049774
v -0.050671 1.517978 0.176704
v 0.134351 1.637784 0.045431
v 0.014208 1.575171 -0.181047
v 0.295605 1.344008 0.229293
v 0.136738 1.182968 0.123807
v 0.104037 1.316553 0.279507
v 0.219445 1.422215 0.239031
v 0.162503 1.128168 0.221179
v -0.092659 0.791173 -0.013401
v 0.002876 0.759314 -0.032667
v -0.077674 0.773902 0.075976
v 0.017861 0.742043 0.056710
v -0.139808 1.494184 0.230568
v -0.262824 1.429710 0.006129
v -0.247937 1.405424 0.004946
v -0.124921 1.469899 0.229385
v 0.196775 1.470672 -0.106729
v 0.045140 1.718049 -0.094680
v -0.052909 1.311599 0.080112
v -0.204544 1.558976 0.092161
v -0.149085 1.480688 0.084329
v 0.104231 1.621649 -0.099375
v -0.163971 1.504974 0.085512
v 0.089344 1.645935 -0.098193
v -0.214724 1.439803 0.131529
v -0.229610 1.464089 0.132711
v -0.715111 0.072972 -0.033024
v -0.017842 0.789184 -0.033024
v -0.715111 0.072972 0.004554
v -0.017842 0.789184 0.004554
v -0.741456 0.099769 -0.033024
v -0.044186 0.815982 -0.033024
v -0.741456 0.099769 0.004554
v -0.044186 0.815982 0.004554
v -0.749237 0.003950 -0.073991
v -0.702598 0.114094 -0.073991
v -0.737737 0.003950 0.021210
v -0.691099 0.114094 0.021210
v -0.907034 0.003950 -0.073991
v -0.909281 0.108667 -0.073991
v -0.893760 0.003950 0.020474
v -0.896007 0.108667 0.020474
v -0.712816 0.046154 -0.073991
v -0.701317 0.046154 0.021210
v -0.912839 0.053786 0.020474
v -0.926114 0.053786 -0.073991
v -0.813011 0.001830 0.021210
v -0.817590 0.122785 0.021210
v -0.811313 0.000362 -0.081448
v -0.815654 0.121344 -0.082764
v -0.809419 0.058295 -0.094497
v -0.814071 0.056838 0.021210
vn 0.1606 0.0810 -0.9837
vn 0.1577 0.1300 -0.9789
vn 0.7351 -0.6698 -0.1047
vn -0.2762 -0.4105 0.8690
vn 0.7925 0.5926 -0.1437
vn 0.9738 0.0033 0.2272
vn -0.9320 0.3615 -0.0281
vn 0.1332 0.1098 -0.9850
vn 0.8963 -0.4110 0.1666
vn -0.2272 -0.0000 0.9738
vn 0.2141 0.1212 -0.9693
vn -0.2218 -0.1173 0.9680
vn -0.9810 -0.0666 -0.1824
vn 0.0332 -0.9994 0.0077
vn 0.2272 -0.0000 -0.9738
vn 0.9717 -0.0662 0.2267
vn -0.9662 0.1250 -0.2254
vn -0.1934 0.9801 -0.0451
vn -0.0607 -0.9981 -0.0142
vn 0.8865 0.4480 -0.1162
vn 0.8669 0.4948 -0.0604
vn -0.8699 -0.4915 -0.0406
vn 0.8149 0.5325 -0.2288
vn -0.5438 0.8324 -0.1067
vn -0.5431 0.7430 -0.3912
vn 0.4832 0.1902 0.8546
vn -0.9061 -0.4220 -0.0284
vn -0.8139 -0.5324 0.2324
vn -0.4832 -0.1902 -0.8546
vn 0.5069 -0.8592 -0.0697
vn -0.5864 0.8048 -0.0920
vn -0.9205 -0.3833 -0.0759
vn -0.8950 -0.4458 0.0141
vn 0.9253 0.3757 -0.0509
vn 0.2371 0.1107 -0.9652
vn 0.9160 -0.1935 0.3513
vn 0.6974 0.6387 -0.3251
vn -0.3363 -0.9335 0.1240
vn -0.0956 -0.3214 -0.9421
vn -0.9592 0.2002 -0.1995
vn -0.0660 0.3640 0.9291
vn 0.3151 -0.1293 -0.9402
vn 0.1996 0.2082 0.9575
vn 0.1652 0.1737 0.9708
vn 0.7351 -0.6698 0.1047
vn -0.3449 -0.2844 -0.8945
vn 0.8445 0.5323 0.0587
vn 0.9831 -0.0081 -0.1828
vn -0.9320 0.3615 0.0281
vn 0.0992 0.1212 0.9877
vn 0.8954 -0.4409 0.0613
vn -0.2272 -0.0000 -0.9738
vn 0.2141 0.1212 0.9693
vn -0.2140 -0.1211 -0.9693
vn -0.9810 -0.0666 0.1824
vn 0.0332 -0.9994 -0.0077
vn 0.2272 -0.0000 0.9738
vn 0.9717 -0.0662 -0.2267
vn -0.9662 0.1250 0.2254
vn -0.1934 0.9801 0.0451
vn -0.0607 -0.9981 0.0142
vn 0.8543 0.5175 0.0479
vn 0.8669 0.4948 0.0604
vn -0.8699 -0.4915 0.0406
vn -0.4552 -0.2373 -0.8582
vn -0.5702 0.8062 0.1582
vn -0.5163 0.7993 0.3074
vn -0.8344 -0.5203 0.1815
vn -0.9061 -0.4220 0.0284
vn 0.8249 0.5168 -0.2292
vn 0.4488 -0.8826 -0.1404
vn 0.4552 0.2373 0.8582
vn -0.9205 -0.3833 0.0759
vn -0.8950 -0.4458 -0.0141
vn 0.9253 0.3757 0.0509
vn 0.2756 -0.2052 0.9391
vn 0.9160 -0.1935 -0.3513
vn 0.6974 0.6387 0.3251
vn -0.3363 -0.9335 -0.1240
vn -0.0956 -0.3214 0.9421
vn -0.9171 0.1722 0.3596
vn 0.2229 0.2033 -0.9534
vn 0.3594 -0.2553 0.8976
vn -0.7928 -0.5027 0.3446
vn -0.5654 0.8214 -0.0747
vn -0.4648 0.8739 0.1424
vn -0.6078 -0.4058 0.6826
vn 0.5200 0.3566 -0.7761
vn 0.5729 -0.8173 0.0615
vn -0.5211 -0.3572 0.7752
vn -0.4505 0.8773 0.1656
vn 0.5349 -0.8448 -0.0171
vn -0.5307 -0.4212 0.7355
vn 0.4925 0.4022 -0.7718
vn 0.7165 -0.6976 -0.0000
vn -0.0000 -0.0000 1.0000
vn -0.7165 0.6976 -0.0000
vn -0.0000 -0.0000 -1.0000
vn 0.9819 -0.1477 -0.1186
vn -0.0075 0.0023 1.0000
vn -0.9475 0.2906 0.1331
vn 0.2039 -0.0307 -0.9785
vn -0.0264 -0.9996 0.0139
vn 0.0650 0.9978 -0.0126
vn 0.1289 -0.2219 -0.9665
vn -0.9260 -0.3545 0.1301
vn -0.0091 -0.0002 1.0000
vn 0.7539 -0.6506 -0.0911
vn -0.0839 -0.2164 -0.9727
vn -0.1324 0.9910 0.0186
vn 0.0282 -0.9996 -0.0034
vn -0.1748 0.0536 -0.9831
vn 0.1996 0.2082 -0.9575
vn 0.1755 0.2365 -0.9556
vn 0.8181 -0.5747 0.0202
vn -0.3449 -0.2844 0.8945
vn 0.8445 0.5323 -0.0587
vn 0.9831 -0.0081 0.1828
vn -0.9289 0.3276 -0.1727
vn 0.1837 0.0033 -0.9830
vn 0.8745 -0.4844 0.0238
vn 0.2217 0.1177 -0.9680
vn -0.2140 -0.1211 0.9693
vn -0.9711 -0.0754 -0.2266
vn 0.8543 0.5175 -0.0479
vn 0.8696 0.4909 -0.0531
vn -0.8541 -0.5146 -0.0755
vn 0.8265 0.5174 -0.2217
vn -0.5702 0.8062 -0.1582
vn -0.5163 0.7993 -0.3074
vn -0.9152 -0.4030 -0.0072
vn -0.7717 -0.6042 0.1983
vn 0.5102 -0.8586 -0.0492
vn -0.5805 0.8096 -0.0865
vn -0.9322 -0.3583 -0.0517
vn 0.9316 0.3616 -0.0369
vn 0.2756 -0.2052 -0.9391
vn 0.9527 -0.2259 0.2034
vn 0.0484 -0.4067 -0.9123
vn -0.9171 0.1722 -0.3596
vn 0.2229 0.2033 0.9534
vn 0.3594 -0.2553 -0.8976
vn 0.1606 0.0810 0.9837
vn 0.1755 0.2365 0.9556
vn 0.7584 -0.6477 0.0733
vn -0.2762 -0.4105 -0.8690
vn 0.7925 0.5926 0.1437
vn 0.9738 0.0033 -0.2272
vn -0.9289 0.3276 0.1727
vn 0.1775 -0.0193 0.9839
vn 0.9323 -0.3175 -0.1733
vn 0.2217 0.1177 0.9680
vn -0.2218 -0.1173 -0.9680
vn -0.9711 -0.0754 0.2266
vn 0.8865 0.4480 0.1162
vn 0.8696 0.4909 0.0531
vn -0.8541 -0.5146 0.0755
vn -0.5438 0.8324 0.1067
vn -0.5431 0.7430 0.3912
vn -0.8438 -0.4856 0.2284
vn -0.9152 -0.4030 0.0072
vn 0.4648 -0.8739 -0.1424
vn -0.9322 -0.3583 0.0517
vn 0.9316 0.3616 0.0369
vn 0.2371 0.1107 0.9652
vn 0.9527 -0.2259 -0.2034
vn 0.0484 -0.4067 0.9123
vn -0.9592 0.2002 0.1995
vn -0.0660 0.3640 -0.9291
vn 0.3151 -0.1293 0.9402
vn 0.4553 0.2373 0.8582
vn -0.5729 0.8173 -0.0615
vn -0.4488 0.8826 0.1404
vn 0.5201 0.3566 -0.7761
vn 0.5654 -0.8214 0.0747
vn -0.5705 -0.3431 0.7462
vn -0.4550 0.8793 0.1406
vn 0.5229 -0.8520 -0.0265
vn -0.4888 -0.4586 0.7421
vn 0.5019 0.3463 -0.7926
vn -0.0093 -0.0005 1.0000
vn 0.0881 0.1906 -0.9777
vn -0.0370 -0.9993 0.0052
vn 0.0685 0.9976 -0.0083
vn 0.1857 -0.1602 -0.9695
vn -0.0074 -0.0028 1.0000
vn -0.1703 -0.0652 -0.9832
vn -0.1770 0.9841 -0.0169
vn 0.0559 -0.9983 0.0152
vn -0.1148 0.1708 -0.9786
vt 0.240108 0.164820
vt 0.352760 0.247866
vt 0.258056 0.280175
vt 0.329276 0.124063
vt 0.224361 0.085887
vt 0.261280 0.020611
vt 0.151768 0.002607
vt 0.161470 0.091932
vt 0.552570 0.367728
vt 0.582769 0.224494
vt 0.626162 0.295302
vt 0.169490 0.174284
vt 0.559008 0.088364
vt 0.695876 0.002607
vt 0.712884 0.052669
vt 0.430516 0.212693
vt 0.449161 0.312759
vt 0.467201 0.100484
vt 0.573219 0.173642
vt 0.546585 0.031096
vt 0.472382 0.847569
vt 0.430516 0.780519
vt 0.472382 0.776303
vt 0.731982 0.117684
vt 0.743631 0.173435
vt 0.766231 0.240870
vt 0.615009 0.896294
vt 0.590029 0.809157
vt 0.641987 0.829895
vt 0.564550 0.874849
vt 0.514441 0.932196
vt 0.527074 0.856723
vt 0.577371 0.740835
vt 0.552504 0.790287
vt 0.456071 0.945018
vt 0.459750 0.923042
vt 0.430516 0.851784
vt 0.437751 0.926579
vt 0.584898 0.964887
vt 0.534280 0.942667
vt 0.185834 0.349590
vt 0.240286 0.397491
vt 0.190910 0.403862
vt 0.180099 0.288102
vt 0.868190 0.674885
vt 0.780262 0.785254
vt 0.770757 0.674597
vt 0.096698 0.886599
vt 0.129901 0.956880
vt 0.099365 0.955620
vt 0.198990 0.490129
vt 0.264869 0.476380
vt 0.285195 0.388861
vt 0.326123 0.448526
vt 0.242197 0.984085
vt 0.129054 0.984820
vt 0.868190 0.850128
vt 0.807525 0.911239
vt 0.815057 0.832002
vt 0.275391 0.904643
vt 0.250152 0.853270
vt 0.275391 0.848733
vt 0.253409 0.826276
vt 0.141449 0.836071
vt 0.144706 0.809077
vt 0.341397 0.676371
vt 0.290389 0.802212
vt 0.290389 0.695092
vt 0.249850 0.903101
vt 0.868190 0.785554
vt 0.774372 0.806522
vt 0.275913 0.344354
vt 0.357334 0.369423
vt 0.770757 0.585465
vt 0.849413 0.409524
vt 0.818156 0.592221
vt 0.925547 0.372942
vt 0.891321 0.418270
vt 0.887123 0.375665
vt 0.855866 0.669383
vt 0.918593 0.667312
vt 0.929745 0.415547
vt 0.972429 0.608926
vt 0.972429 0.412247
vt 0.357334 0.271043
vt 0.098430 0.178190
vt 0.002815 0.280445
vt 0.003198 0.154065
vt 0.099560 0.098667
vt 0.046227 0.047126
vt 0.648175 0.735622
vt 0.613921 0.593280
vt 0.750004 0.677493
vt 0.633245 0.457226
vt 0.496510 0.372942
vt 0.646478 0.400526
vt 0.765544 0.576832
vt 0.622102 0.542256
vt 0.727053 0.475278
vt 0.746965 0.372943
vt 0.771445 0.187138
vt 0.813335 0.120050
vt 0.813335 0.191356
vt 0.461761 0.489865
vt 0.572449 0.665303
vt 0.451451 0.546064
vt 0.930951 0.158397
vt 0.956272 0.072078
vt 0.982336 0.138117
vt 0.855418 0.035374
vt 0.905532 0.092787
vt 0.868058 0.110890
vt 0.918316 0.226646
vt 0.893469 0.177251
vt 0.800695 0.044534
vt 0.851737 0.013385
vt 0.771445 0.115832
vt 0.875273 0.024900
vt 0.141202 0.406769
vt 0.096318 0.361143
vt 0.956118 0.785254
vt 0.965623 0.674597
vt 0.255321 0.814196
vt 0.146618 0.796997
vt 0.131698 0.488863
vt 0.095454 0.406629
vt 0.852679 0.290207
vt 0.778090 0.231860
vt 0.852093 0.231860
vt 0.928855 0.911239
vt 0.921324 0.832002
vt 0.002607 0.825991
vt 0.076610 0.718871
vt 0.076610 0.825991
vt 0.004287 0.664562
vt 0.076610 0.602462
vt 0.078290 0.664562
vt 0.377170 0.564829
vt 0.350393 0.625337
vt 0.341847 0.569497
vt 0.002607 0.495342
vt 0.076610 0.495342
vt 0.962009 0.806522
vt 0.102001 0.294740
vt 0.020879 0.400909
vt 0.002607 0.304107
vt 0.206520 0.531924
vt 0.285175 0.707866
vt 0.237777 0.714621
vt 0.130386 0.495342
vt 0.164611 0.540670
vt 0.126188 0.537947
vt 0.200067 0.791783
vt 0.137340 0.789712
vt 0.083504 0.731327
vt 0.129136 0.997393
vt 0.242279 0.996658
vt 0.085874 0.955753
vt 0.083504 0.885219
vt 0.326458 0.527457
vt 0.335484 0.520847
vt 0.290830 0.572606
vt 0.330563 0.570826
vt 0.351752 0.670781
vt 0.337809 0.625713
vt 0.297869 0.495342
vt 0.290389 0.507374
vt 0.290389 0.639942
vt 0.098438 0.824899
vt 0.377528 0.508033
vt 0.776651 0.347412
vt 0.850630 0.349245
vt 0.243045 0.956144
vt 0.400590 0.802232
vt 0.400625 0.695112
vt 0.268331 0.961156
vt 0.111707 0.827811
vt 0.425302 0.419964
vt 0.409612 0.002607
vt 0.425302 0.002607
vt 0.409612 0.419964
vt 0.393925 0.002951
vt 0.393925 0.420308
vt 0.378235 0.002951
vt 0.362548 0.419964
vt 0.362548 0.002607
vt 0.402581 0.477442
vt 0.362548 0.449469
vt 0.402581 0.448755
vt 0.730852 0.782028
vt 0.710117 0.747260
vt 0.733209 0.740835
vt 0.378302 0.849962
vt 0.339449 0.873911
vt 0.338471 0.849962
vt 0.673639 0.785032
vt 0.648722 0.740835
vt 0.677605 0.744018
vt 0.290662 0.833292
vt 0.333257 0.867701
vt 0.290389 0.867020
vt 0.857893 0.284799
vt 0.897645 0.236650
vt 0.901310 0.283952
vt 0.696020 0.758677
vt 0.698151 0.784906
vt 0.339580 0.827709
vt 0.379410 0.827709
vt 0.753801 0.749345
vt 0.753801 0.783073
vt 0.363958 0.426236
vt 0.403990 0.425522
vt 0.752091 0.814469
vt 0.698151 0.825232
vt 0.858322 0.318066
vt 0.897792 0.323414
vt 0.330139 0.893662
vt 0.290389 0.898462
vt 0.653830 0.827836
vt 0.677342 0.834086
vt 0.705607 0.832729
vt 0.734076 0.829208
vt 0.446951 0.002607
vt 0.614896 0.759705
vt 0.510763 0.954172
vt 0.131531 0.890517
vt 0.868190 0.917765
vt 0.345101 0.822495
vt 0.814308 0.393668
vt 0.479852 0.423747
vt 0.430516 0.614303
vt 0.955797 0.207792
vt 0.797014 0.022545
vt 0.778683 0.040994
vt 0.926592 0.002607
vt 0.066322 0.472874
vt 0.771445 0.289176
vt 0.002607 0.718871
vt 0.002607 0.602462
vt 0.396588 0.624593
vt 0.241625 0.516068
vt 0.168810 0.498065
vt 0.083504 0.534647
vt 0.339168 0.671157
vt 0.378235 0.420308
vt 0.362548 0.478156
vt 0.703365 0.779837
vt 0.379280 0.873911
vt 0.647201 0.788511
vt 0.330099 0.827709
vt 0.857893 0.231860
s 0
f 3/1/1 25/2/1 26/3/1
f 1/4/2 4/5/2 2/6/2
f 8/7/3 4/5/3 5/8/3
f 8/9/4 11/10/4 12/11/4
f 4/5/5 7/12/5 5/8/5
f 10/13/6 16/14/6 14/15/6
f 1/16/7 11/10/7 6/17/7
f 2/18/8 9/19/8 1/16/8
f 2/18/9 12/20/9 10/13/9
f 15/21/10 20/22/10 16/23/10
f 10/13/11 13/24/11 9/19/11
f 12/11/12 15/25/12 16/26/12
f 9/19/13 15/25/13 11/10/13
f 19/27/14 18/28/14 20/29/14
f 17/30/15 21/31/15 13/32/15
f 16/33/16 18/28/16 14/34/16
f 13/32/15 18/28/15 17/30/15
f 21/31/17 24/35/17 22/36/17
f 15/21/18 21/31/18 22/36/18
f 19/37/10 22/36/10 24/38/10
f 17/30/19 24/39/19 23/40/19
f 42/41/20 30/42/20 32/43/20
f 3/1/21 28/44/21 7/12/21
f 6/45/22 25/46/22 1/47/22
f 104/48/23 36/49/23 77/50/23
f 31/51/24 30/42/24 29/52/24
f 29/52/25 46/53/25 45/54/25
f 36/49/26 76/55/26 77/56/26
f 44/57/27 29/58/27 43/59/27
f 103/60/28 38/61/28 78/62/28
f 78/63/29 34/64/29 79/65/29
f 97/66/30 37/67/30 33/68/30
f 100/69/31 34/64/31 38/61/31
f 27/70/32 43/59/32 25/46/32
f 43/59/33 47/71/33 25/46/33
f 26/3/34 42/41/34 28/44/34
f 41/72/35 45/73/35 46/53/35
f 43/74/36 51/75/36 47/76/36
f 30/42/37 41/72/37 46/53/37
f 49/77/38 50/78/38 51/79/38
f 47/76/39 50/78/39 45/80/39
f 29/81/40 50/78/40 48/82/40
f 43/83/41 48/82/41 49/84/41
f 47/85/42 26/3/42 25/2/42
f 54/86/43 72/87/43 52/88/43
f 55/89/44 52/88/44 53/90/44
f 55/89/45 8/7/45 5/8/45
f 8/91/46 58/92/46 6/93/46
f 55/89/47 7/12/47 54/86/47
f 57/94/48 63/95/48 59/96/48
f 58/92/49 52/97/49 6/93/49
f 56/98/50 53/99/50 52/97/50
f 53/99/51 59/96/51 8/100/51
f 67/101/52 62/102/52 63/103/52
f 60/104/53 57/94/53 56/98/53
f 59/105/54 62/106/54 58/92/54
f 62/106/55 56/98/55 58/92/55
f 65/107/56 66/108/56 67/109/56
f 68/110/57 64/111/57 60/112/57
f 65/107/58 63/113/58 61/114/58
f 60/112/57 65/107/57 61/114/57
f 69/115/59 70/116/59 68/110/59
f 69/115/60 60/112/60 62/102/60
f 66/117/52 69/115/52 62/102/52
f 70/118/61 66/108/61 64/111/61
f 42/41/62 75/119/62 84/120/62
f 28/44/63 54/86/63 7/12/63
f 72/121/64 6/45/64 52/122/64
f 80/123/65 79/65/65 83/124/65
f 31/51/66 75/119/66 32/43/66
f 74/125/67 87/126/67 75/119/67
f 99/127/68 80/128/68 37/129/68
f 74/130/69 44/57/69 85/131/69
f 80/132/65 33/133/65 37/134/65
f 102/135/70 35/136/70 97/137/70
f 101/138/71 96/139/71 105/140/71
f 35/136/72 81/141/72 39/142/72
f 85/131/73 27/70/73 72/121/73
f 85/131/74 72/121/74 88/143/74
f 42/41/75 73/144/75 28/44/75
f 84/120/76 86/145/76 88/146/76
f 92/147/77 85/148/77 88/149/77
f 75/119/78 87/126/78 84/120/78
f 90/150/79 91/151/79 89/152/79
f 91/151/80 88/149/80 86/153/80
f 74/154/81 91/151/81 86/153/81
f 85/155/82 89/152/82 74/154/82
f 88/146/83 73/144/83 84/120/83
f 82/156/72 76/55/72 81/157/72
f 104/48/70 82/158/70 102/159/70
f 105/140/84 94/160/84 95/161/84
f 103/162/85 94/160/85 106/163/85
f 81/164/72 93/165/72 96/139/72
f 80/166/65 94/160/65 78/167/65
f 103/162/86 93/165/86 76/168/86
f 93/165/87 105/140/87 96/139/87
f 83/169/88 104/48/88 102/159/88
f 101/138/89 95/161/89 80/170/89
f 33/133/88 102/135/88 97/137/88
f 81/171/90 99/127/90 39/172/90
f 36/49/91 100/69/91 40/173/91
f 39/174/92 97/66/92 35/175/92
f 40/173/93 103/60/93 76/176/93
f 34/64/94 104/48/94 79/177/94
f 108/178/95 109/179/95 107/180/95
f 110/181/96 113/182/96 109/179/96
f 114/183/97 111/184/97 113/182/97
f 111/184/98 108/185/98 107/186/98
f 116/187/99 124/188/99 123/189/99
f 132/190/100 122/191/100 125/192/100
f 125/193/101 120/194/101 126/195/101
f 131/196/102 116/197/102 123/198/102
f 121/199/103 129/200/103 127/201/103
f 128/202/104 116/203/104 130/204/104
f 131/196/105 115/205/105 129/206/105
f 125/193/106 119/207/106 121/208/106
f 132/190/107 121/209/107 127/210/107
f 123/189/108 117/211/108 115/212/108
f 117/213/96 132/190/96 127/210/96
f 119/214/109 131/196/109 129/206/109
f 122/215/110 130/204/110 120/216/110
f 127/201/111 115/217/111 117/218/111
f 120/219/112 131/196/112 126/220/112
f 118/221/96 132/190/96 124/222/96
f 3/1/113 1/4/113 25/2/113
f 1/4/114 3/1/114 4/5/114
f 8/7/115 2/6/115 4/5/115
f 8/9/116 6/17/116 11/10/116
f 4/5/117 3/1/117 7/12/117
f 10/13/118 12/20/118 16/14/118
f 1/16/119 9/19/119 11/10/119
f 2/18/120 10/13/120 9/19/120
f 2/18/121 8/223/121 12/20/121
f 15/21/10 19/37/10 20/22/10
f 10/13/122 14/15/122 13/24/122
f 12/11/123 11/10/123 15/25/123
f 9/19/124 13/24/124 15/25/124
f 19/27/14 17/30/14 18/28/14
f 17/30/15 23/40/15 21/31/15
f 16/33/16 20/224/16 18/28/16
f 13/32/15 14/34/15 18/28/15
f 21/31/17 23/225/17 24/35/17
f 15/21/18 13/32/18 21/31/18
f 19/37/10 15/21/10 22/36/10
f 17/30/19 19/27/19 24/39/19
f 42/41/125 41/72/125 30/42/125
f 3/1/126 26/3/126 28/44/126
f 6/45/127 27/70/127 25/46/127
f 104/48/128 98/226/128 36/49/128
f 31/51/129 32/43/129 30/42/129
f 29/52/130 30/42/130 46/53/130
f 36/49/26 40/173/26 76/55/26
f 44/57/131 31/227/131 29/58/131
f 103/60/132 100/69/132 38/61/132
f 78/63/29 38/61/29 34/64/29
f 97/66/133 99/228/133 37/67/133
f 100/69/134 98/226/134 34/64/134
f 27/70/135 44/57/135 43/59/135
f 26/3/136 41/72/136 42/41/136
f 41/72/137 47/85/137 45/73/137
f 43/74/138 49/229/138 51/75/138
f 49/77/38 48/82/38 50/78/38
f 47/76/139 51/75/139 50/78/139
f 29/81/140 45/80/140 50/78/140
f 43/83/141 29/81/141 48/82/141
f 47/85/142 41/72/142 26/3/142
f 54/86/143 73/144/143 72/87/143
f 55/89/144 54/86/144 52/88/144
f 55/89/145 53/90/145 8/7/145
f 8/91/146 59/105/146 58/92/146
f 55/89/147 5/8/147 7/12/147
f 57/94/148 61/230/148 63/95/148
f 58/92/149 56/98/149 52/97/149
f 56/98/150 57/94/150 53/99/150
f 53/99/151 57/94/151 59/96/151
f 67/101/52 66/117/52 62/102/52
f 60/104/152 61/230/152 57/94/152
f 59/105/153 63/231/153 62/106/153
f 62/106/154 60/104/154 56/98/154
f 65/107/56 64/111/56 66/108/56
f 68/110/57 70/118/57 64/111/57
f 65/107/58 67/232/58 63/113/58
f 60/112/57 64/111/57 65/107/57
f 69/115/59 71/233/59 70/116/59
f 69/115/60 68/110/60 60/112/60
f 66/117/52 71/234/52 69/115/52
f 70/118/61 71/235/61 66/108/61
f 42/41/155 32/43/155 75/119/155
f 28/44/156 73/144/156 54/86/156
f 72/121/157 27/70/157 6/45/157
f 80/123/65 78/63/65 79/65/65
f 31/51/158 74/125/158 75/119/158
f 74/125/159 86/236/159 87/126/159
f 99/127/160 101/237/160 80/128/160
f 74/130/161 31/227/161 44/57/161
f 80/132/65 83/238/65 33/133/65
f 102/135/70 82/239/70 35/136/70
f 101/138/162 81/240/162 96/139/162
f 35/136/72 82/239/72 81/141/72
f 85/131/163 44/57/163 27/70/163
f 42/41/164 84/120/164 73/144/164
f 84/120/165 87/126/165 86/145/165
f 92/147/166 90/241/166 85/148/166
f 90/150/79 92/242/79 91/151/79
f 91/151/167 92/147/167 88/149/167
f 74/154/168 89/152/168 91/151/168
f 85/155/169 90/243/169 89/152/169
f 88/146/170 72/87/170 73/144/170
f 82/156/171 77/56/171 76/55/171
f 104/48/70 77/50/70 82/158/70
f 105/140/84 106/163/84 94/160/84
f 103/162/172 78/167/172 94/160/172
f 81/164/72 76/244/72 93/165/72
f 80/166/65 95/161/65 94/160/65
f 103/162/173 106/163/173 93/165/173
f 93/165/87 106/163/87 105/140/87
f 83/169/174 79/177/174 104/48/174
f 101/138/175 105/140/175 95/161/175
f 33/133/88 83/238/88 102/135/88
f 81/171/176 101/237/176 99/127/176
f 36/49/177 98/226/177 100/69/177
f 39/174/178 99/228/178 97/66/178
f 40/173/179 100/69/179 103/60/179
f 34/64/180 98/226/180 104/48/180
f 108/178/95 110/181/95 109/179/95
f 110/181/96 114/183/96 113/182/96
f 114/183/97 112/245/97 111/184/97
f 111/184/98 112/245/98 108/185/98
f 116/187/99 118/246/99 124/188/99
f 132/190/181 128/247/181 122/191/181
f 125/193/101 122/248/101 120/194/101
f 131/196/182 130/249/182 116/197/182
f 121/199/183 119/250/183 129/200/183
f 128/202/184 118/251/184 116/203/184
f 131/196/185 123/198/185 115/205/185
f 125/193/106 126/195/106 119/207/106
f 132/190/186 125/192/186 121/209/186
f 123/189/108 124/188/108 117/211/108
f 117/213/96 124/222/96 132/190/96
f 119/214/187 126/220/187 131/196/187
f 122/215/188 128/202/188 130/204/188
f 127/201/189 129/200/189 115/217/189
f 120/219/190 130/249/190 131/196/190
f 118/221/96 128/247/96 132/190/96
