# Blender 3.6.2
# www.blender.org
o Cube
v 1.000000 1.000000 -1.000000
v 1.000000 -1.000000 -1.000000
v 1.000000 1.000000 1.000000
v 1.000000 -1.000000 1.000000
v -1.000000 1.000000 -1.000000
v -1.000000 -1.000000 -1.000000
v -1.000000 1.000000 1.000000
v -1.000000 -1.000000 1.000000
vn -0.0000 1.0000 -0.0000
vn -0.0000 -0.0000 1.0000
vn -1.0000 -0.0000 -0.0000
vn -0.0000 -1.0000 -0.0000
vn 1.0000 -0.0000 -0.0000
vn -0.0000 -0.0000 -1.0000
vt 0.993301 0.993301
vt 0.006699 0.993301
vt 0.006699 0.006699
vt 0.993301 0.006699
s 0
f 5/1/1 3/2/1 1/1/1
f 3/2/2 8/3/2 4/3/2
f 7/2/3 6/4/3 8/3/3
f 2/4/4 8/3/4 6/4/4
f 1/1/5 4/3/5 2/4/5
f 5/1/6 2/4/6 6/4/6
f 5/1/1 7/2/1 3/2/1
f 3/2/2 7/2/2 8/3/2
f 7/2/3 5/1/3 6/4/3
f 2/4/4 4/3/4 8/3/4
f 1/1/5 3/2/5 4/3/5
f 5/1/6 1/1/6 2/4/6
